<svg xmlns="http://www.w3.org/2000/svg" xmlns:xlink="http://www.w3.org/1999/xlink" width="120" height="120" viewBox="0 0 120 120">
  <defs>
    <clipPath id="clip-path">
      <rect id="사각형_40" data-name="사각형 40" width="96.065" height="94.074" fill="#122265"/>
    </clipPath>
  </defs>
  <g id="ico_setup" transform="translate(11.143 10.826)">
    <g id="그룹_2632" data-name="그룹 2632" transform="translate(0.858 2.174)" clip-path="url(#clip-path)">
      <path id="패스_3952" data-name="패스 3952" d="M86.383,75.323A5.689,5.689,0,0,1,85.63,76.6c-2.383,2.4-4.769,4.8-7.244,7.1a2.272,2.272,0,0,1-1.9.4c-3.352-1.121-6.712-2.252-9.959-3.637a5.088,5.088,0,0,0-4.686-.008A4.382,4.382,0,0,0,59.4,83.007c-1.136,3-2.45,5.926-3.671,8.891a3.162,3.162,0,0,1-3.49,2.168c-2.748-.147-5.513-.118-8.265-.008a3,3,0,0,1-3.155-1.936c-1.375-3.034-2.77-6.062-4.042-9.139a4.345,4.345,0,0,0-2.37-2.466,5.024,5.024,0,0,0-4.777.049c-3,1.423-6.157,2.516-9.25,3.744a2.337,2.337,0,0,1-2.8-.625c-2.01-2.062-4.038-4.115-6.182-6.035a3.127,3.127,0,0,1-.94-3.894,94.3,94.3,0,0,1,3.62-8.892c1.205-2.3-.136-3.874-.845-5.682-.114-.291-.677-.437-1.057-.589-3.325-1.332-6.655-2.647-9.983-3.971A3.14,3.14,0,0,1,.01,51.138a72.017,72.017,0,0,0,0-7.888,3.169,3.169,0,0,1,2.16-3.392c2.479-1.083,4.97-2.141,7.457-3.208a2.527,2.527,0,0,1,.583-.223c2.673-.406,3.732-2.368,4.372-4.647a2.779,2.779,0,0,0-.323-1.628q-1.933-4.536-3.943-9.04a3.552,3.552,0,0,1,1.042-4.645c2.138-1.859,4.1-3.919,6.1-5.935a1.856,1.856,0,0,1,2.135-.551c3.671,1.342,7.354,2.655,11,4.065a3.494,3.494,0,0,0,2.583.026,5.513,5.513,0,0,0,3.865-3.913c.849-2.606,2.042-5.1,3.09-7.642a3.555,3.555,0,0,1,3.947-2.5A74.247,74.247,0,0,0,52.09.034a2.917,2.917,0,0,1,3.084,1.841q2.159,4.782,4.278,9.582a5.066,5.066,0,0,0,6.18,2.372c3.337-1.4,6.713-2.7,10.07-4.055a2.359,2.359,0,0,1,2.811.656c2.17,2.2,4.386,4.351,6.6,6.5a2.061,2.061,0,0,1,.705,2.348q-1.576,4.266-3.171,8.525a2.292,2.292,0,0,1-.237.575c-1.549,2.087-1,4.137.184,6.112a2.986,2.986,0,0,0,1.408,1.072c3.012,1.213,6.053,2.353,9.076,3.54a16.4,16.4,0,0,1,1.559.795,2.426,2.426,0,0,1,1.4,2.425c-.055,2.839-.112,5.683.017,8.517a3.121,3.121,0,0,1-2.069,3.325c-2.325,1.029-4.66,2.034-7,3.037a18.634,18.634,0,0,1-2.442.962,3.742,3.742,0,0,0-2.427,2.4,4.537,4.537,0,0,0,.11,4.431c1.281,2.565,2.349,5.237,3.459,7.885a21.242,21.242,0,0,1,.689,2.452m-55.2-28.339a16.853,16.853,0,0,0,33.7.116c.073-8.955-7.61-16.534-16.8-16.57a16.835,16.835,0,0,0-16.9,16.454" transform="translate(0 0)" fill="#122265"/>
    </g>
    <rect id="사각형_119" data-name="사각형 119" width="120" height="120" transform="translate(-11.143 -10.826)" fill="none"/>
  </g>
</svg>
