<svg xmlns="http://www.w3.org/2000/svg" xmlns:xlink="http://www.w3.org/1999/xlink" width="90" height="90" viewBox="0 0 90 90">
  <defs>
    <clipPath id="clip-path">
      <rect id="사각형_36" data-name="사각형 36" width="60.846" height="52.884" fill="#eef0ff"/>
    </clipPath>
  </defs>
  <g id="ico_bolume" transform="translate(14.553 18.059)">
    <g id="그룹_2626" data-name="그룹 2626" transform="translate(0 0)" clip-path="url(#clip-path)">
      <path id="패스_3948" data-name="패스 3948" d="M0,16.657c.514-1.354.877-1.6,2.4-1.6,2.9,0,5.8.008,8.7-.013a1.34,1.34,0,0,0,.787-.3q4.965-4.162,9.905-8.355c2.363-2,4.717-4.006,7.093-5.988a1.748,1.748,0,0,1,2.835,1.041,4.449,4.449,0,0,1,.093.886q.006,24.157,0,48.313c0,1.164-.373,1.832-1.214,2.105a1.656,1.656,0,0,1-1.748-.266c-2.948-2.51-5.926-4.985-8.9-7.47q-4-3.345-8-6.678a1.058,1.058,0,0,0-.629-.2c-2.966-.013-5.932-.008-8.9-.01-1.491,0-1.881-.257-2.425-1.59Z" transform="translate(0 0)" fill="#eef0ff"/>
      <path id="패스_3949" data-name="패스 3949" d="M110.532,30.657c-.064.672-.131,1.344-.192,2.016a31.077,31.077,0,0,1-5.887,15.8c-.973,1.332-2.085,2.568-3.186,3.8a2.1,2.1,0,0,1-3.1.141,2.15,2.15,0,0,1-.121-2.992c1.187-1.462,2.472-2.857,3.539-4.4a25.531,25.531,0,0,0,4.28-11.12,28.7,28.7,0,0,0-3.3-18.717,29.752,29.752,0,0,0-4.157-5.546,2.091,2.091,0,0,1,.114-3.018,2.074,2.074,0,0,1,2.977.048c.487.5.959,1.008,1.408,1.538a31.217,31.217,0,0,1,6.99,14.614c.277,1.473.364,2.981.541,4.473.023.195.059.388.089.583Z" transform="translate(-49.686 -3.063)" fill="#eef0ff"/>
      <path id="패스_3950" data-name="패스 3950" d="M95.687,35.131A24.337,24.337,0,0,1,90.2,50.483c-.513.627-1.065,1.224-1.625,1.81a2.158,2.158,0,1,1-3.111-2.984,21.035,21.035,0,0,0,3.368-4.461,19.687,19.687,0,0,0,2.431-9.736,19.225,19.225,0,0,0-3.366-11.257,29.849,29.849,0,0,0-2.25-2.771,2.207,2.207,0,0,1-.041-3.151,2.147,2.147,0,0,1,3.137.139,23.251,23.251,0,0,1,6.415,12.283c.284,1.572.36,3.183.531,4.776" transform="translate(-43.2 -8.824)" fill="#eef0ff"/>
      <path id="패스_3951" data-name="패스 3951" d="M82.522,39.966A17.115,17.115,0,0,1,77.261,52.28a2.152,2.152,0,0,1-3.072.065,2.116,2.116,0,0,1,.012-3.1,12.448,12.448,0,0,0,3.665-6.717,12.6,12.6,0,0,0-3.111-11.215,4.96,4.96,0,0,1-.96-1.3,2.054,2.054,0,0,1,.881-2.544,2.108,2.108,0,0,1,2.646.286A16.155,16.155,0,0,1,81.993,36.1c.257,1.272.357,2.576.529,3.866" transform="translate(-37.465 -13.825)" fill="#eef0ff"/>
    </g>
    <rect id="사각형_118" data-name="사각형 118" width="90" height="90" transform="translate(-14.553 -18.059)" fill="none"/>
  </g>
</svg>
