<svg xmlns="http://www.w3.org/2000/svg" xmlns:xlink="http://www.w3.org/1999/xlink" width="444" height="444" viewBox="0 0 444 444">
  <defs>
    <clipPath id="clip-path">
      <path id="패스_3960" data-name="패스 3960" d="M48.705.05c-4.24.039-8.481.078-12.717.02-2.679-.037-3.023,1.606-3.01,3.737.039,6.218-.128,12.441.06,18.654.1,3.284-.907,4.553-4.36,4.451-7.564-.223-15.138-.071-22.709-.068-5.836,0-5.859,0-5.864,5.641Q.041,123.531,0,214.576c0,1.419.134,2.839.214,4.441,2.125,0,3.741-.018,5.357,0,21.609.273,43.239.075,64.822.99a98.01,98.01,0,0,1,45.169,12.819c2.119,1.218,4.293,2.344,7.453,4.062a34.78,34.78,0,0,0-11.456-14.408c-15.814-12.156-34.522-15.185-53.63-16.237-8.446-.466-16.919-.419-25.392-.372-3.972.022-7.943.044-11.91.014-1.426-.011-2.851-.167-4.291-.256V40.018c3.784,0,7.386,0,10.988,0,5.316,0,5.319,0,5.322,5.17q.033,70.972.063,141.946c0,1.678,0,3.355,0,4.351,13.23,1.136,25.8,1.619,38.173,3.414,19.488,2.828,37.008,10.258,50.739,25.033,2.864,3.081,5.621,6.26,9.089,10.135A49.249,49.249,0,0,0,117.888,203.8c-12.593-13.877-29.108-20.066-47.145-22.744-6.886-1.023-13.872-1.377-20.913-2.046V39.788c25.239.782,50.425-.458,73.9,10.836-20.2-21.34-47.245-21.9-73.831-24.065V13.024c32.248-.081,63.232,2.269,85.357,29.965,20.244-26.47,55.892-31.449,85.407-29.377V26.555c-7.594.63-15,1.006-22.334,1.9-14.962,1.822-29.6,4.909-42.337,13.616-3.407,2.331-6.349,5.343-9.5,8.042q.358.521.713,1.042c23.193-11.852,48.274-10.54,73.4-11.373V179.3c-1.36.063-2.418.119-3.477.16-14.256.553-28.268,2.449-41.455,8.25-16.839,7.407-29.308,19.007-34.727,37.126a32.016,32.016,0,0,0-.694,4.377,3.725,3.725,0,0,0,2.274-1.515c9.864-14.422,23.735-23.325,40-28.811,16.054-5.416,32.7-6.61,49.5-6.516,1.825.011,3.65,0,5.893,0V40.346h16.257V205.98c-5.417,0-10.527.017-15.637,0-16.478-.063-32.949-.273-49.194,3.32-13.694,3.03-26.3,8.1-36.04,18.631-2.063,2.228-3.545,5-5.3,7.514,1.213.507,1.644.505,1.952.309,19.227-12.3,40.73-16.167,63.025-16.6,11.087-.216,22.181-.175,33.274-.135,6.212.023,12.423.046,18.635.024a47.949,47.949,0,0,0,5.945-.74V108.783c-.148-2.411-.421-4.822-.426-7.234-.045-23.116-.111-46.233.011-69.349.021-3.874-.851-5.622-5.171-5.448-4.682.189-9.373.158-14.064.127-3.287-.022-6.575-.044-9.86.009-2.782.046-3.855-.849-3.786-3.716.156-6.485.01-12.977.064-19.465.019-2.2-.449-3.694-3.083-3.65-4.372.075-8.749.037-13.126,0-12.77-.113-25.539-.225-38.171,2.462-17.707,3.767-33.744,10.631-45.575,25.062-1.815,2.213-3.088,1.971-4.768-.08C122.028,14.253,107.437,7.381,91.239,3.313,79.853.454,68.324,0,56.767,0c-2.686,0-5.374.024-8.062.049" transform="translate(0 -0.001)" fill="none"/>
    </clipPath>
    <linearGradient id="linear-gradient" x1="-0.002" y1="0.796" x2="0" y2="-0.003" gradientUnits="objectBoundingBox">
      <stop offset="0" stop-color="#18388a"/>
      <stop offset="0.654" stop-color="#1ca9be"/>
      <stop offset="1" stop-color="#1cb2c2"/>
    </linearGradient>
    <clipPath id="clip-path-2">
      <rect id="사각형_65" data-name="사각형 65" width="270.843" height="236.89" fill="none"/>
    </clipPath>
    <linearGradient id="linear-gradient-2" x1="-1.695" y1="1.749" x2="-1.682" y2="1.749" gradientUnits="objectBoundingBox">
      <stop offset="0" stop-color="#18388a"/>
      <stop offset="1" stop-color="#1cb2c2"/>
    </linearGradient>
  </defs>
  <g id="logo" transform="translate(-1578.89 -683.89)">
    <g id="타원_2" data-name="타원 2" transform="translate(1578.89 683.89)" fill="#fff" stroke="#707070" stroke-width="1" opacity="0.16">
      <circle cx="222" cy="222" r="222" stroke="none"/>
      <circle cx="222" cy="222" r="221.5" fill="none"/>
    </g>
    <g id="그룹_2651" data-name="그룹 2651" transform="translate(1665.506 787.699)">
      <g id="그룹_2648" data-name="그룹 2648" transform="translate(0 0.001)">
        <g id="그룹_2647" data-name="그룹 2647" clip-path="url(#clip-path)">
          <rect id="사각형_64" data-name="사각형 64" width="271.517" height="237.83" transform="translate(-0.675 -0.169) rotate(-0.163)" fill="url(#linear-gradient)"/>
        </g>
      </g>
      <g id="그룹_2650" data-name="그룹 2650" transform="translate(0)">
        <g id="그룹_2649" data-name="그룹 2649" clip-path="url(#clip-path-2)">
          <path id="패스_3961" data-name="패스 3961" d="M115.31,75.163h83.451c.062,1.343.164,2.527.164,3.711.009,26.763.073,53.527-.056,80.289a69.027,69.027,0,0,1-1.408,14.075c-3.338,15.554-12.65,25.815-28.323,29.335-16.319,3.666-31.552,1.6-43.711-11.171-7.687-8.072-10.244-18.382-10.345-29.095-.269-28.518-.086-57.04-.071-85.561a10.835,10.835,0,0,1,.3-1.584m72.384,43.186V104.835H174.807V86.867H135.228V99.836h24.054v56.739l-1.051.723-9.642-10.709L126.1,169.249l10.472,10.238,12.907-13.764c3.247,3.362,6.743,6.274,9.345,9.838,4.342,5.945,10.047,5.563,16.571,4.643V138.1h12.245V123.7H175.573v-5.349Z" transform="translate(-21.697 -14.189)" fill="#18388a"/>
          <path id="패스_3962" data-name="패스 3962" d="M190.291,121.072H178.169v5.349h12.063v14.4H177.987v42.1c-6.524.919-12.228,1.3-16.571-4.643-2.6-3.564-6.1-6.476-9.345-9.838L139.164,182.21l-10.472-10.238,22.494-22.661,9.642,10.709,1.051-.723V102.559H137.825V89.591H177.4v17.968h12.887Z" transform="translate(-24.294 -16.913)" fill="#fff"/>
          <path id="패스_3963" data-name="패스 3963" d="M190.291,121.072H178.169v5.349h12.063v14.4H177.987v42.1a43.263,43.263,0,0,1-5.929.528c-4.068,0-7.673-1.107-10.642-5.172-2.6-3.564-6.1-6.476-9.345-9.838L139.164,182.21l-10.472-10.238,22.494-22.661,9.642,10.709,1.051-.723V102.559H137.825V89.591H177.4v17.968h12.887v13.513h0V107.559H177.4V89.591H137.825v12.968h24.054V159.3l-1.051.723-9.642-10.709-22.494,22.661,10.472,10.238,12.907-13.764c3.247,3.362,6.743,6.274,9.345,9.838,2.968,4.064,6.573,5.172,10.642,5.172a43.263,43.263,0,0,0,5.929-.528v-42.1h12.245v-14.4H178.169v-5.349Z" transform="translate(-24.294 -16.913)" fill="url(#linear-gradient-2)"/>
        </g>
      </g>
    </g>
  </g>
</svg>
